<svg id="Layer_1" data-name="Layer 1" xmlns="http://www.w3.org/2000/svg" viewBox="0 0 13.3 7.92"><defs><style>.cls-1{fill:#ad7bab;}</style></defs><path class="cls-1" d="M11.44,5.66a1.62,1.62,0,0,0-3-.84l2.23,2.23A1.63,1.63,0,0,0,11.44,5.66Z" transform="translate(-1.35 -4.04)"/><path class="cls-1" d="M14.65,8.65a1.84,1.84,0,0,0-1.84-1.84,1.86,1.86,0,0,0-1.57.89l2.52,2.52A1.84,1.84,0,0,0,14.65,8.65Z" transform="translate(-1.35 -4.04)"/><path class="cls-1" d="M10.34,8.69,6.68,5A1.58,1.58,0,0,0,4.44,5h0a1.57,1.57,0,0,0,0,2.23L8.1,10.93a2.53,2.53,0,0,0,.29.28,2.9,2.9,0,0,0,3.06.53A4.86,4.86,0,0,0,12.7,11Z" transform="translate(-1.35 -4.04)"/><path class="cls-1" d="M6.27,10.75S4,12.71,2,10.8a1.85,1.85,0,0,1-.53-1.72,1.55,1.55,0,0,1,2.19-.84,2.44,2.44,0,0,1,.47.37Z" transform="translate(-1.35 -4.04)"/></svg>