<svg xmlns="http://www.w3.org/2000/svg" xmlns:xlink="http://www.w3.org/1999/xlink" width="1080" zoomAndPan="magnify" viewBox="0 0 810 809.999993" height="1080" preserveAspectRatio="xMidYMid meet" version="1.0"><defs><clipPath id="4ea64eba08"><path d="M 0 510.953125 L 220 510.953125 L 220 810 L 0 810 Z M 0 510.953125 " clip-rule="nonzero"/></clipPath><clipPath id="89a56a5691"><path d="M 328 0 L 809.773438 0 L 809.773438 655.5 L 328 655.5 Z M 328 0 " clip-rule="nonzero"/></clipPath><clipPath id="159fa40fe9"><path d="M 60.621094 90 L 749.121094 90 L 749.121094 810 L 60.621094 810 Z M 60.621094 90 " clip-rule="nonzero"/></clipPath></defs><g clip-path="url(#4ea64eba08)"><path fill="#ff9d7e" d="M 219.976562 675.441406 C 219.976562 675.441406 157.074219 668.914062 158.441406 765.5 C 158.441406 765.5 106.375 631.832031 78.933594 809.960938 C 78.933594 809.960938 73.878906 685.796875 32.78125 736.484375 C 32.78125 736.484375 95.464844 647.078125 0.226562 637.105469 C 0.226562 637.105469 89.222656 632.398438 38.417969 569.824219 C 38.417969 569.824219 101.929688 594.710938 80.515625 510.957031 C 80.515625 510.957031 111.449219 634.210938 168.078125 517.617188 C 168.078125 517.617188 115.253906 643.730469 208.054688 610.417969 C 208.054688 610.417969 121.386719 656.609375 219.976562 675.441406 Z M 219.976562 675.441406 " fill-opacity="1" fill-rule="nonzero"/></g><g clip-path="url(#89a56a5691)"><path fill="#ff9d7e" d="M 809.511719 360.398438 C 809.511719 360.398438 671.683594 346.097656 674.6875 557.71875 C 674.6875 557.71875 560.601562 264.847656 500.480469 655.136719 C 500.480469 655.136719 489.40625 383.085938 399.355469 494.148438 C 399.355469 494.148438 536.695312 298.25 328.03125 276.398438 C 328.03125 276.398438 523.019531 266.085938 411.707031 128.984375 C 411.707031 128.984375 550.867188 183.515625 503.945312 0 C 503.945312 0 571.71875 270.0625 695.800781 14.597656 C 695.800781 14.597656 580.0625 290.914062 783.386719 217.925781 C 783.390625 217.925781 593.492188 319.136719 809.511719 360.398438 Z M 809.511719 360.398438 " fill-opacity="1" fill-rule="nonzero"/></g><path fill="#ad7cab" d="M 611.921875 549.574219 C 615.695312 547.957031 619.464844 546.164062 623.414062 544.367188 C 615.515625 525.867188 622.335938 498.390625 626.828125 468.574219 C 638.140625 392.960938 653.40625 290.230469 562.71875 180.136719 C 499.328125 99.671875 411.335938 83.867188 390.503906 96.621094 C 359.796875 83.867188 214.695312 134.875 187.042969 297.234375 C 165.671875 438.042969 230.859375 509.882812 217.929688 562.6875 C 217.929688 562.6875 328.90625 671.523438 604.378906 552.808594 C 604.378906 552.808594 602.765625 525.867188 607.613281 512.578125 C 607.613281 512.578125 608.871094 536.824219 611.921875 549.574219 Z M 611.921875 549.574219 " fill-opacity="1" fill-rule="nonzero"/><path fill="#855c87" d="M 482.085938 539.875 C 564.335938 532.152344 634.191406 591.0625 638.5 598.964844 C 642.808594 607.046875 652.148438 634.886719 650.351562 648.714844 C 661.125 657.515625 697.222656 671.882812 706.378906 688.585938 C 715.539062 705.289062 747.503906 826.699219 747.503906 892.074219 C 383.140625 1103.285156 62.414062 892.074219 62.414062 892.074219 C 62.414062 826.699219 94.199219 705.289062 103.539062 688.585938 C 112.695312 671.882812 148.792969 657.515625 159.566406 648.714844 C 157.769531 634.886719 167.109375 607.046875 171.417969 598.964844 C 175.730469 590.882812 252.585938 540.054688 333.21875 544.367188 " fill-opacity="1" fill-rule="nonzero"/><path fill="#da9da5" d="M 483.164062 504.675781 C 483.164062 504.675781 481.730469 549.214844 481.550781 566.097656 C 443.480469 585.316406 409.179688 607.40625 409.179688 607.40625 C 392.835938 597.347656 336.808594 569.332031 336.808594 569.332031 C 334.476562 552.988281 328.90625 511.140625 323.878906 507.726562 C 323.878906 507.726562 297.300781 487.792969 290.300781 477.015625 L 284.195312 463.007812 C 198.355469 451.691406 200.332031 384.519531 216.851562 369.792969 C 233.015625 355.246094 257.796875 369.972656 257.796875 369.972656 C 283.296875 357.582031 287.425781 283.046875 302.332031 268.5 C 302.332031 268.5 302.871094 323.457031 320.289062 336.207031 C 337.707031 348.960938 355.125 345.367188 355.125 345.367188 C 336.628906 325.074219 342.015625 290.230469 342.015625 290.230469 C 356.5625 331.71875 373.980469 344.289062 386.371094 346.984375 C 365.363281 320.582031 368.414062 283.046875 368.414062 283.046875 C 379.191406 318.25 405.050781 352.191406 441.324219 350.039062 C 421.390625 337.285156 418.15625 302.265625 418.15625 302.265625 C 429.292969 318.609375 445.09375 348.78125 466.285156 350.398438 C 454.074219 329.023438 452.996094 316.453125 452.996094 316.453125 C 472.75 345.367188 482.625 354.347656 518.902344 347.164062 C 503.996094 333.335938 495.734375 296.875 495.734375 296.875 C 514.230469 322.019531 520.160156 339.980469 546.375 345.367188 C 557.332031 346.984375 570.621094 339.261719 570.621094 339.261719 C 590.550781 338.363281 609.945312 360.632812 597.015625 391.707031 C 584.085938 422.777344 552.300781 436.246094 528.238281 428.164062 C 528.238281 428.164062 513.871094 473.785156 503.816406 488.511719 C 498.96875 494.617188 483.164062 504.675781 483.164062 504.675781 Z M 483.164062 504.675781 " fill-opacity="1" fill-rule="nonzero"/><path fill="#ad7cab" d="M 160.285156 650.332031 L 158.667969 647.097656 L 178.601562 637.222656 L 180.21875 640.453125 Z M 336.628906 569.691406 L 345.25 573.640625 L 398.945312 543.109375 C 373.980469 543.46875 325.316406 509.703125 325.316406 509.703125 C 327.652344 516.347656 333.9375 556.21875 335.730469 566.816406 C 319.570312 558.914062 304.125 561.96875 303.40625 561.96875 C 303.40625 561.96875 320.289062 562.328125 336.089844 570.949219 Z M 214.695312 734.746094 C 205 731.871094 198.894531 727.917969 197.816406 723.789062 C 197.816406 721.09375 197.277344 717.503906 196.738281 713.191406 C 195.480469 703.3125 193.6875 686.789062 197.996094 685.175781 L 196.738281 681.761719 C 189.554688 684.277344 191.53125 699.902344 193.148438 713.550781 C 193.6875 717.683594 194.046875 721.453125 194.226562 724.148438 C 194.226562 725.765625 193.148438 727.023438 191.171875 729.535156 C 187.402344 733.847656 181.835938 740.3125 181.117188 755.398438 C 180.757812 760.785156 178.78125 770.304688 175.90625 782.519531 C 165.3125 748.933594 138.554688 724.507812 116.648438 715.707031 C 106.410156 711.574219 98.152344 711.035156 92.945312 714.089844 L 94.917969 717.144531 C 98.871094 714.628906 106.410156 715.347656 115.210938 718.941406 C 137.480469 728.097656 165.3125 754.140625 174.113281 789.703125 C 173.753906 790.960938 173.574219 792.21875 173.214844 793.472656 C 164.054688 832.269531 150.230469 890.816406 153.101562 937.695312 L 156.695312 937.515625 C 153.640625 891.355469 167.46875 832.988281 176.625 794.371094 C 180.9375 776.589844 184.167969 762.582031 184.527344 755.398438 C 185.246094 741.570312 190.09375 736 193.6875 731.691406 C 194.585938 730.613281 195.480469 729.535156 196.199219 728.457031 C 199.972656 733.128906 207.335938 736.179688 213.441406 738.15625 C 221.878906 740.671875 233.371094 742.289062 244.6875 742.289062 C 259.589844 742.289062 274.496094 739.414062 282.578125 731.871094 C 282.757812 731.871094 236.066406 741.210938 214.695312 734.746094 Z M 509.203125 560.171875 C 508.484375 559.992188 493.402344 557.65625 480.652344 564.480469 L 482.265625 567.714844 C 494.121094 561.429688 509.203125 560.171875 509.203125 560.171875 Z M 719.488281 741.75 C 716.078125 739.953125 711.945312 739.773438 707.636719 741.390625 C 699.195312 744.441406 683.753906 766.175781 668.667969 787.1875 C 660.230469 799.042969 651.609375 811.253906 646.941406 815.566406 C 645.863281 812.511719 644.605469 809.636719 643.527344 806.765625 C 637.421875 791.5 631.675781 759.351562 631.675781 759.351562 C 627.367188 775.875 634.011719 792.21875 640.296875 808.023438 C 642.269531 813.050781 644.425781 818.257812 646.042969 823.46875 C 658.433594 861.363281 650.171875 898.363281 638.320312 942.722656 L 641.730469 943.621094 C 651.25 908.238281 663.101562 864.238281 649.453125 822.210938 C 649.09375 821.132812 648.734375 820.054688 648.375 818.976562 C 652.867188 815.386719 660.40625 804.96875 671.722656 788.984375 C 685.011719 770.304688 701.53125 747.136719 708.894531 744.441406 C 712.304688 743.1875 715.359375 743.1875 717.871094 744.621094 C 722.542969 747.136719 724.335938 753.421875 724.335938 753.421875 L 727.75 752.523438 C 727.570312 752.703125 725.59375 745.160156 719.488281 741.75 Z M 651.25 647.097656 C 649.992188 646.378906 619.644531 629.140625 598.09375 624.46875 C 534.164062 615.308594 484.601562 628.0625 436.476562 640.632812 C 428.035156 642.789062 419.414062 645.125 410.976562 647.097656 C 362.128906 638.835938 306.820312 638.835938 306.28125 638.835938 L 306.28125 642.429688 C 306.820312 642.429688 360.695312 642.609375 409 650.511719 C 408.820312 651.230469 408.820312 652.128906 408.640625 652.847656 C 406.304688 669.910156 398.226562 735.460938 402.175781 776.769531 C 399.121094 778.386719 396.96875 781.441406 396.96875 785.210938 C 396.96875 790.421875 401.277344 794.730469 406.484375 794.730469 C 411.695312 794.730469 416.003906 790.421875 416.003906 785.210938 C 416.003906 780.003906 411.695312 775.695312 406.484375 775.695312 C 406.125 775.695312 405.945312 775.695312 405.585938 775.695312 C 402.894531 745.160156 406.664062 701.160156 409.539062 674.039062 C 412.410156 697.207031 420.492188 729.535156 428.574219 763.121094 C 438.808594 804.789062 449.226562 847.714844 449.226562 870.882812 C 449.046875 870.882812 449.046875 870.882812 448.867188 870.882812 C 443.65625 870.882812 439.347656 875.191406 439.347656 880.402344 C 439.347656 885.609375 443.65625 889.921875 448.867188 889.921875 C 454.074219 889.921875 458.382812 885.609375 458.382812 880.402344 C 458.382812 876.628906 456.050781 873.21875 452.816406 871.78125 C 452.996094 848.253906 442.402344 804.609375 431.984375 762.402344 C 421.210938 718.761719 410.257812 673.679688 411.871094 653.207031 C 412.050781 651.949219 412.230469 651.050781 412.230469 650.332031 C 420.492188 648.355469 428.753906 646.199219 437.015625 644.046875 C 484.601562 631.652344 533.984375 618.902344 597.015625 628.0625 C 617.847656 632.730469 648.734375 650.152344 648.914062 650.332031 Z M 314.183594 794.011719 C 318.132812 760.425781 307.71875 736.898438 301.613281 722.710938 C 300.714844 720.734375 299.996094 718.761719 299.277344 717.144531 C 296.585938 710.679688 297.121094 701.699219 297.660156 694.511719 C 298.199219 686.25 298.558594 680.144531 294.609375 678.527344 L 293.171875 681.761719 C 294.789062 682.480469 294.429688 689.304688 294.070312 694.15625 C 293.710938 701.699219 292.992188 711.035156 296.046875 718.402344 C 296.765625 720.195312 297.480469 721.992188 298.378906 724.148438 C 304.484375 737.976562 314.542969 760.964844 310.769531 793.652344 C 309.15625 808.203125 309.871094 831.730469 310.769531 859.027344 C 312.207031 902.3125 313.824219 951.523438 305.742188 978.644531 L 309.15625 979.722656 C 317.414062 952.0625 315.800781 902.671875 314.363281 859.027344 C 313.464844 832.988281 312.566406 808.382812 314.183594 794.011719 Z M 404.332031 933.742188 C 401.457031 934.460938 398.765625 935.898438 396.25 937.335938 C 392.121094 939.488281 383.859375 944.339844 383.859375 944.339844 C 384.578125 944.519531 385.296875 944.519531 385.835938 944.519531 C 390.144531 944.519531 394.09375 942.542969 397.867188 940.566406 C 400.199219 939.308594 402.714844 938.054688 405.230469 937.335938 C 411.515625 935.539062 417.980469 937.515625 424.800781 939.488281 C 431.984375 941.644531 439.527344 943.800781 446.890625 941.464844 C 446.890625 941.464844 432.703125 938.054688 425.699219 936.078125 C 418.695312 933.921875 411.515625 931.765625 404.332031 933.742188 Z M 584.625 386.496094 C 595.222656 366.5625 581.933594 348.242188 567.925781 353.449219 C 567.925781 353.449219 554.457031 359.558594 551.40625 368.355469 C 548.171875 376.976562 550.328125 390.988281 549.609375 396.195312 C 548.890625 401.222656 542.785156 411.640625 542.785156 411.640625 C 541.167969 419.902344 574.210938 406.433594 584.625 386.496094 Z M 267.671875 436.785156 C 269.46875 434.988281 271.800781 428.34375 266.59375 422.238281 C 261.386719 416.132812 261.027344 408.050781 259.230469 401.761719 C 257.4375 395.476562 252.40625 376.617188 234.089844 379.671875 C 224.753906 381.828125 215.234375 404.996094 233.195312 422.597656 C 251.152344 440.199219 265.875 438.582031 267.671875 436.785156 Z M 267.671875 436.785156 " fill-opacity="1" fill-rule="nonzero"/><path fill="#da9da5" d="M 290.835938 224.675781 C 292.453125 225.753906 294.609375 226.113281 296.226562 224.855469 C 293.171875 240.300781 287.425781 259.519531 286.527344 275.324219 C 282.9375 275.683594 279.164062 276.042969 275.574219 276.222656 C 274.675781 276.222656 273.777344 276.402344 272.699219 276.222656 C 271.621094 276.042969 270.546875 275.324219 269.648438 274.605469 C 265.875 271.550781 262.285156 267.601562 257.4375 267.601562 C 255.640625 267.601562 254.023438 268.140625 252.40625 268.859375 C 256 260.597656 255.101562 249.101562 257.257812 240.300781 C 259.050781 232.757812 262.285156 225.574219 266.054688 218.75 C 267.851562 221.441406 273.777344 221.085938 277.011719 220.90625 C 280.242188 220.726562 283.476562 220.1875 286.347656 221.441406 C 287.964844 222.160156 289.222656 223.597656 290.835938 224.675781 Z M 221.878906 249.640625 C 223.496094 250.359375 224.933594 251.078125 226.550781 251.4375 C 228.703125 251.796875 230.859375 251.4375 233.015625 251.617188 C 235.167969 251.796875 237.503906 254.488281 238.582031 256.464844 C 240.554688 241.917969 243.070312 227.371094 245.945312 212.824219 C 246.300781 210.847656 246.839844 208.871094 247.558594 206.894531 C 245.046875 211.027344 240.554688 215.875 237.503906 218.570312 C 237.324219 218.75 237.144531 218.929688 236.964844 219.109375 C 270.726562 157.324219 319.390625 104.34375 379.371094 94.824219 C 334.117188 94.285156 212.183594 149.960938 187.222656 297.414062 C 181.296875 336.386719 182.015625 370.152344 185.964844 399.609375 C 183.808594 363.6875 196.738281 305.675781 221.878906 249.640625 Z M 547.09375 175.644531 C 545.121094 183.546875 542.066406 192.167969 534.703125 195.761719 C 526.265625 199.890625 515.128906 195.761719 507.40625 201.148438 C 504.535156 203.125 502.558594 206.175781 499.867188 208.691406 C 491.246094 216.773438 477.957031 216.59375 466.285156 215.15625 C 454.613281 213.71875 442.042969 211.386719 431.625 216.773438 C 423.1875 221.085938 416.722656 229.703125 407.382812 230.242188 C 398.40625 230.78125 390.863281 223.238281 382.0625 221.085938 C 375.238281 219.46875 368.054688 221.265625 361.050781 222.160156 C 354.050781 223.058594 346.148438 222.339844 341.300781 217.3125 C 335.910156 211.746094 336.089844 202.40625 336.808594 194.683594 C 313.285156 230.78125 315.980469 290.949219 315.980469 290.949219 C 317.054688 287.355469 318.851562 283.226562 321.367188 280.53125 C 323.878906 277.839844 327.652344 276.042969 331.242188 276.402344 C 332.679688 276.582031 333.9375 276.941406 335.371094 277.121094 C 344.53125 278.019531 350.816406 266.164062 359.976562 265.984375 C 365.363281 265.984375 370.75 270.117188 375.777344 268.140625 C 379.90625 266.703125 381.703125 261.855469 383.679688 257.902344 C 386.015625 253.054688 389.246094 248.742188 393.195312 244.972656 C 393.914062 248.742188 394.453125 252.875 396.25 256.285156 C 398.046875 259.699219 401.277344 262.570312 405.230469 263.109375 C 410.796875 263.648438 415.644531 259.160156 421.390625 258.441406 C 426.058594 257.902344 430.550781 260.238281 434.859375 261.855469 C 439.167969 263.46875 444.554688 264.367188 448.328125 261.496094 C 449.945312 260.238281 451.558594 258.261719 453.355469 258.800781 C 453.894531 258.980469 454.613281 259.339844 455.152344 259.160156 C 456.050781 258.980469 456.40625 258.082031 456.585938 257.363281 C 458.742188 251.617188 460.71875 246.046875 462.871094 240.300781 C 463.589844 244.792969 465.925781 250.539062 468.800781 254.128906 C 470.59375 256.285156 472.570312 258.261719 474.546875 260.058594 C 476.519531 261.855469 478.675781 263.828125 481.371094 263.828125 C 483.523438 263.828125 485.320312 262.75 487.296875 261.855469 C 496.632812 257.722656 507.230469 261.496094 517.105469 263.109375 C 519.261719 263.46875 521.59375 263.828125 523.75 263.289062 C 526.980469 262.570312 529.675781 260.417969 532.730469 259.160156 C 536.859375 257.363281 541.886719 257.363281 546.015625 258.980469 C 548.351562 259.878906 550.507812 261.316406 552.839844 262.390625 C 558.585938 264.726562 565.410156 264.367188 570.621094 261.136719 C 573.492188 259.519531 575.828125 257.183594 578.878906 255.925781 C 581.214844 255.027344 584.265625 256.285156 586.601562 257.363281 C 588.9375 258.441406 591.089844 259.878906 593.066406 261.496094 C 598.09375 265.804688 602.585938 273.527344 605.636719 279.273438 C 598.632812 244.074219 547.09375 175.644531 547.09375 175.644531 Z M 297.480469 612.078125 C 295.6875 587.832031 286.167969 572.027344 287.246094 562.328125 C 286.886719 556.578125 289.402344 550.113281 293.171875 505.035156 C 296.945312 459.953125 278.445312 451.152344 272.160156 460.3125 C 265.875 469.472656 263.003906 546.34375 259.769531 551.371094 C 256.539062 556.398438 244.867188 552.628906 242.710938 547.957031 C 240.734375 543.289062 214.875 457.441406 204.28125 454.746094 C 191.890625 451.691406 188.65625 471.808594 195.839844 489.230469 C 202.304688 504.675781 209.847656 540.953125 209.847656 540.953125 C 198.894531 543.828125 197.996094 547.78125 196.558594 555.683594 C 195.300781 562.328125 199.074219 581.722656 199.074219 590.34375 C 192.789062 585.136719 188.121094 584.417969 182.015625 587.292969 C 175.90625 590.164062 176.625 594.835938 175.371094 608.664062 C 174.113281 622.492188 176.625 635.785156 183.628906 648.355469 C 190.632812 660.929688 196.199219 679.785156 197.277344 683.558594 C 207.695312 709.78125 253.84375 721.453125 290.480469 685.535156 C 302.511719 667.214844 308.257812 635.605469 307 626.625 C 306.28125 620.160156 300.535156 614.050781 297.480469 612.078125 Z M 247.738281 206.714844 C 248.097656 205.996094 248.457031 205.277344 248.816406 204.742188 C 248.277344 205.277344 247.917969 205.996094 247.738281 206.714844 Z M 247.738281 206.714844 " fill-opacity="1" fill-rule="nonzero"/><path fill="#f3eff9" d="M 512.796875 361.890625 C 512.796875 361.890625 515.488281 382.90625 508.125 399.609375 C 500.765625 416.3125 469.15625 419.363281 441.863281 416.132812 C 423.546875 412.898438 420.492188 382.90625 420.492188 382.90625 C 420.492188 382.90625 451.019531 327.945312 512.796875 361.890625 Z M 356.023438 389.011719 C 352.613281 374.824219 329.625 362.25 320.648438 350.578125 C 319.570312 349.320312 318.492188 347.882812 317.054688 347.164062 C 315.621094 346.265625 313.824219 346.085938 312.027344 346.085938 C 300.175781 345.726562 289.582031 352.910156 279.882812 359.738281 C 278.265625 360.8125 277.550781 363.867188 277.371094 365.84375 C 277.371094 365.84375 269.648438 387.574219 283.476562 408.949219 C 293.710938 424.933594 319.390625 424.574219 335.550781 423.136719 C 341.65625 413.617188 358.71875 399.789062 356.023438 389.011719 Z M 356.023438 389.011719 " fill-opacity="1" fill-rule="nonzero"/><path fill="#855c87" d="M 506.152344 377.875 C 506.152344 378.773438 506.332031 379.851562 506.332031 380.929688 C 506.332031 401.042969 493.042969 417.386719 476.519531 417.386719 C 460 417.386719 446.710938 401.042969 446.710938 380.929688 C 446.710938 379.851562 446.710938 378.953125 446.890625 377.875 C 453.894531 386.316406 464.667969 391.886719 476.519531 391.886719 C 488.371094 391.886719 499.148438 386.496094 506.152344 377.875 Z M 355.664062 409.125 C 357.101562 405.355469 357.460938 400.507812 357.28125 396.375 C 352.613281 398.890625 347.226562 400.328125 341.65625 400.328125 C 322.980469 400.328125 307.898438 385.238281 307.898438 366.742188 C 305.023438 372.308594 303.40625 378.953125 303.40625 386.136719 C 303.40625 406.613281 317.054688 423.316406 333.757812 423.316406 C 342.554688 422.957031 352.253906 418.105469 355.664062 409.125 Z M 467.722656 515.988281 C 473.289062 512.9375 478.496094 510.0625 483.164062 507.007812 L 481.191406 503.957031 C 476.519531 506.832031 467.722656 515.988281 467.722656 515.988281 Z M 389.605469 540.773438 C 375.777344 539.160156 348.121094 522.996094 326.753906 507.546875 L 324.597656 510.421875 C 344.710938 524.96875 373.621094 542.570312 389.066406 544.1875 C 389.964844 544.367188 390.683594 544.367188 391.761719 544.367188 C 396.96875 544.367188 403.972656 542.929688 412.949219 540.054688 C 412.949219 540.234375 394.273438 541.3125 389.605469 540.773438 Z M 549.429688 370.871094 C 548.53125 375.183594 548.710938 379.671875 548.890625 384.164062 C 549.25 390.089844 549.429688 395.65625 546.914062 400.328125 C 546.375 401.222656 545.835938 402.121094 545.121094 403.019531 C 543.144531 406.074219 543.863281 412.898438 543.863281 412.898438 C 543.863281 412.898438 546.375 407.691406 548.171875 404.996094 C 548.890625 404.097656 549.429688 403.019531 549.96875 401.941406 C 553.019531 396.375 552.839844 389.910156 552.480469 383.804688 C 552.300781 379.671875 552.121094 375.363281 553.019531 371.589844 C 554.816406 363.867188 568.105469 353.808594 568.105469 353.808594 C 568.105469 353.808594 551.40625 361.890625 549.429688 370.871094 Z M 269.828125 426.1875 C 268.929688 424.394531 268.03125 422.777344 266.953125 421.160156 C 265.515625 419.003906 264.261719 416.851562 263.542969 414.515625 C 262.644531 412.179688 262.464844 409.84375 262.105469 407.152344 C 261.925781 406.253906 261.925781 405.355469 261.746094 404.457031 C 260.488281 396.195312 257.4375 389.550781 252.945312 384.699219 C 247.378906 378.773438 232.65625 378.953125 232.65625 378.953125 C 232.65625 378.953125 245.765625 382.007812 250.613281 387.035156 C 254.742188 391.347656 257.4375 397.453125 258.515625 404.996094 C 258.695312 405.894531 258.695312 406.613281 258.871094 407.511719 C 259.230469 410.203125 259.589844 412.898438 260.488281 415.414062 C 261.386719 418.105469 262.824219 420.441406 264.261719 422.597656 C 265.335938 424.214844 266.234375 425.828125 266.953125 427.445312 C 268.570312 430.859375 268.03125 439.480469 268.03125 439.480469 C 268.03125 439.480469 271.800781 430.5 269.828125 426.1875 Z M 261.925781 589.804688 C 260.667969 589.625 257.4375 587.652344 254.5625 586.035156 C 246.480469 581.542969 241.453125 578.851562 238.761719 581.003906 C 238.402344 581.363281 238.042969 581.722656 237.503906 582.261719 C 236.425781 577.054688 234.449219 567.714844 231.398438 557.117188 C 226.191406 539.695312 219.726562 537.363281 209.667969 539.160156 L 210.207031 542.75 C 217.75 541.492188 223.136719 541.851562 227.984375 558.195312 C 232.65625 574.179688 234.808594 587.292969 234.988281 587.472656 C 234.628906 588.90625 234.269531 590.523438 234.269531 592.320312 C 234.269531 593.578125 234.449219 594.835938 234.808594 596.273438 C 229.0625 594.65625 224.214844 597.707031 222.777344 599.863281 C 222.777344 599.863281 227.625 600.042969 229.78125 599.683594 C 230.859375 599.503906 233.910156 597.527344 234.988281 596.808594 C 235.707031 599.324219 236.964844 601.839844 238.761719 604.175781 C 238.941406 604.714844 239.121094 607.046875 238.042969 609.382812 C 237.324219 611.359375 235.886719 612.617188 234.269531 613.332031 C 232.117188 614.230469 229.78125 614.050781 227.445312 612.796875 C 224.214844 611.179688 221.519531 607.585938 220.445312 603.097656 C 219.546875 599.503906 217.75 593.9375 215.773438 588.191406 C 212.363281 578.3125 203.921875 566.996094 203.921875 566.996094 C 204.820312 568.613281 207.515625 575.617188 210.207031 583.339844 C 207.515625 583.160156 203.921875 582.800781 203.921875 582.800781 C 206.257812 585.496094 209.667969 586.574219 211.464844 587.113281 C 213.800781 593.578125 215.773438 600.042969 216.851562 603.996094 C 218.289062 609.382812 221.519531 613.871094 225.652344 616.027344 C 227.445312 616.925781 229.421875 617.464844 231.398438 617.464844 C 232.835938 617.464844 234.269531 617.285156 235.527344 616.746094 C 238.582031 615.488281 240.734375 612.976562 241.8125 609.5625 C 241.992188 609.023438 241.992188 608.664062 242.171875 608.125 C 243.25 609.023438 244.148438 610.101562 245.40625 611 C 249.535156 614.410156 252.765625 617.824219 255.640625 621.238281 C 255.640625 622.3125 255.28125 624.109375 254.921875 626.265625 C 253.304688 635.785156 250.074219 653.386719 256.539062 672.0625 C 256.539062 672.0625 256.898438 636.144531 258.515625 626.984375 C 258.695312 626.265625 258.695312 625.546875 258.871094 625.007812 C 259.589844 625.90625 260.308594 626.984375 261.207031 627.882812 C 266.953125 635.066406 271.800781 641.351562 280.0625 643.867188 C 280.0625 643.867188 269.46875 632.550781 263.902344 625.546875 C 259.589844 620.160156 254.742188 614.050781 247.738281 608.304688 C 241.453125 603.097656 238.042969 597.707031 238.042969 592.5 C 238.042969 588.011719 240.375 584.957031 241.273438 584.058594 C 242.890625 583.699219 249.535156 587.472656 252.945312 589.445312 C 254.023438 589.984375 255.101562 590.703125 256 591.0625 C 256 592.679688 256.359375 604.535156 256.359375 604.535156 C 260.128906 600.042969 260.667969 596.09375 260.308594 593.21875 C 260.667969 593.398438 261.027344 593.398438 261.386719 593.578125 C 264.621094 594.117188 292.273438 609.203125 296.226562 613.511719 L 298.917969 611.179688 C 294.609375 606.148438 266.59375 590.523438 261.925781 589.804688 Z M 192.25 619.082031 C 191.351562 619.441406 189.734375 620.519531 188.65625 621.234375 C 185.425781 623.210938 183.269531 624.46875 181.65625 624.46875 C 181.296875 624.46875 181.117188 624.46875 180.757812 624.289062 C 180.757812 624.289062 185.066406 619.082031 186.863281 618.003906 C 188.121094 617.105469 189.015625 616.746094 189.554688 616.386719 C 188.835938 615.847656 188.121094 615.128906 187.402344 614.589844 L 185.785156 613.152344 C 185.785156 613.152344 196.199219 617.644531 200.691406 621.234375 C 206.976562 626.625 213.980469 632.011719 217.390625 633.269531 C 220.621094 634.347656 222.777344 632.550781 223.496094 631.652344 C 224.933594 630.035156 225.472656 627.703125 224.753906 625.90625 C 222.597656 621.234375 206.4375 599.863281 198.355469 591.421875 L 200.871094 588.90625 C 208.769531 597.167969 225.472656 618.902344 227.984375 624.289062 C 229.421875 627.34375 228.703125 631.113281 226.191406 633.988281 C 224.394531 636.144531 221.878906 637.222656 219.367188 637.222656 C 218.289062 637.222656 217.390625 637.042969 216.3125 636.683594 C 211.285156 635.066406 201.945312 627.34375 192.25 619.082031 Z M 191.890625 618.722656 C 191.890625 618.722656 191.890625 618.542969 191.890625 618.722656 Z M 217.75 619.800781 C 211.824219 620.699219 211.105469 624.109375 210.925781 625.367188 L 210.925781 625.546875 L 212.542969 626.265625 L 210.925781 625.546875 C 210.925781 625.546875 214.695312 624.828125 215.773438 624.109375 C 216.3125 623.929688 217.75 619.800781 217.75 619.800781 Z M 289.402344 515.628906 C 285.269531 513.296875 276.472656 512.757812 274.496094 512.9375 C 274.496094 512.9375 278.625 516.527344 281.320312 517.066406 C 283.65625 517.425781 289.402344 515.628906 289.402344 515.628906 Z M 291.734375 487.433594 C 287.964844 484.199219 278.445312 484.558594 276.292969 486.894531 C 276.292969 486.894531 281.679688 488.691406 284.015625 488.691406 C 285.988281 488.871094 291.734375 487.433594 291.734375 487.433594 Z M 219.367188 517.066406 C 222.957031 515.808594 227.625 511.859375 227.625 511.859375 C 223.855469 511.140625 215.414062 514.375 209.308594 517.605469 C 209.488281 517.605469 216.851562 517.964844 219.367188 517.066406 Z M 207.871094 481.867188 C 209.847656 481.328125 215.414062 478.273438 215.414062 478.273438 C 209.488281 476.65625 201.585938 479.53125 200.332031 482.226562 C 200.152344 482.226562 205.539062 482.402344 207.871094 481.867188 Z M 234.628906 559.632812 C 238.761719 560.53125 242.890625 559.992188 246.839844 559.632812 C 247.738281 559.453125 248.636719 559.453125 249.535156 559.273438 C 257.976562 558.375 266.59375 559.09375 274.855469 561.25 C 274.855469 561.25 258.15625 554.785156 249.175781 555.683594 C 248.277344 555.683594 247.378906 555.859375 246.480469 556.039062 C 242.53125 556.398438 234.628906 559.632812 234.628906 559.632812 Z M 210.386719 686.074219 C 210.386719 686.074219 214.515625 690.203125 217.03125 690.203125 C 226.191406 690.203125 235.167969 687.148438 242.351562 681.582031 C 242.351562 681.582031 234.628906 682.480469 231.578125 683.738281 C 224.933594 686.609375 217.390625 687.507812 210.386719 686.074219 Z M 323.699219 205.097656 C 310.050781 217.671875 300.175781 248.921875 300.355469 268.679688 L 303.945312 268.679688 C 303.765625 250 323.699219 205.097656 323.699219 205.097656 Z M 410.796875 328.304688 C 410.796875 328.304688 400.558594 306.753906 396.789062 290.949219 C 393.914062 278.378906 390.503906 250.71875 390.503906 250.71875 C 386.910156 281.429688 398.40625 317.710938 410.796875 328.304688 Z M 471.851562 294.183594 C 466.824219 279.09375 461.257812 250.71875 461.257812 250.71875 C 459.640625 274.785156 471.132812 314.117188 488.550781 330.820312 C 488.730469 331 476.519531 308.011719 471.851562 294.183594 Z M 570.261719 337.644531 C 562.179688 337.644531 538.117188 286.636719 538.117188 286.636719 C 541.167969 295.796875 557.332031 341.238281 570.261719 341.238281 C 570.261719 341.238281 570.261719 341.238281 570.441406 341.238281 L 570.261719 337.644531 C 570.441406 337.644531 570.441406 337.644531 570.261719 337.644531 Z M 590.195312 438.222656 C 590.730469 436.246094 604.199219 389.011719 602.765625 368.355469 C 601.328125 347.523438 587.320312 315.554688 586.601562 314.117188 C 586.601562 314.117188 597.734375 348.421875 599.171875 368.535156 C 600.609375 388.652344 590.195312 438.222656 590.195312 438.222656 Z M 591.269531 480.25 C 590.730469 487.253906 585.523438 549.574219 596.835938 557.117188 L 598.8125 554.066406 C 591.808594 549.214844 591.269531 480.25 591.269531 480.25 Z M 535.78125 471.628906 C 536.859375 463.007812 538.296875 454.925781 539.195312 448.28125 C 540.628906 439.480469 541.527344 433.195312 541.527344 430.5 L 537.9375 430.5 C 537.9375 433.015625 536.859375 439.480469 535.601562 447.742188 C 530.933594 477.195312 523.210938 526.585938 534.703125 544.726562 L 537.757812 542.75 C 530.933594 531.972656 531.652344 507.1875 534.164062 483.839844 C 536.859375 494.976562 542.785156 508.984375 548.171875 521.738281 C 553.199219 533.589844 558.945312 547.0625 557.871094 549.933594 L 561.28125 551.191406 C 562.71875 547.0625 558.765625 537.363281 551.585938 520.300781 C 544.402344 503.238281 534.703125 482.046875 535.78125 471.628906 Z M 241.09375 308.011719 C 244.867188 281.25 249.355469 249.28125 255.820312 222.339844 C 261.207031 199.53125 274.136719 168.640625 274.136719 168.640625 C 254.203125 189.292969 244.507812 257.542969 237.503906 307.472656 C 233.910156 332.4375 229.960938 360.8125 226.550781 362.789062 L 228.34375 365.84375 C 233.195312 363.148438 235.886719 345.007812 241.09375 308.011719 Z M 391.941406 97.699219 L 389.066406 95.722656 C 384.039062 102.90625 379.011719 120.148438 379.371094 137.929688 C 379.371094 137.75 387.988281 103.265625 391.941406 97.699219 Z M 244.6875 550.832031 L 248.097656 551.910156 C 251.691406 540.953125 242.890625 503.417969 235.707031 473.246094 C 231.9375 457.261719 228.703125 443.429688 228.703125 439.300781 L 225.113281 439.300781 C 225.113281 443.789062 228.164062 457.261719 232.296875 474.144531 C 238.941406 502.339844 248.097656 540.953125 244.6875 550.832031 Z M 244.6875 550.832031 " fill-opacity="1" fill-rule="nonzero"/><g clip-path="url(#159fa40fe9)"><path fill="#110c0e" d="M 392.300781 434.089844 L 386.371094 432.65625 L 391.402344 408.050781 Z M 431.984375 463.367188 L 429.832031 460.492188 C 392.480469 488.332031 351.714844 465.34375 351.714844 465.34375 C 351.894531 465.523438 369.132812 477.015625 391.941406 477.015625 C 404.332031 477.015625 418.15625 473.605469 431.984375 463.367188 Z M 749.121094 892.074219 L 749.121094 893.152344 L 748.222656 893.691406 C 664.898438 942.003906 577.085938 971.996094 486.9375 982.953125 C 460.71875 986.1875 434.320312 987.804688 407.921875 987.804688 C 361.410156 987.804688 314.542969 982.953125 268.03125 973.074219 C 143.40625 946.855469 62.234375 894.230469 61.515625 893.691406 L 60.621094 892.972656 L 60.621094 892.074219 C 60.621094 825.261719 92.585938 704.390625 101.921875 687.6875 C 108.386719 676.015625 126.882812 665.777344 141.789062 657.335938 C 148.433594 653.742188 154 650.511719 157.589844 647.816406 C 156.335938 633.269531 165.3125 606.328125 169.800781 598.066406 C 170.519531 596.808594 172.496094 594.835938 175.550781 592.320312 C 176.445312 589.265625 178.0625 587.113281 181.296875 585.675781 C 183.628906 584.597656 185.785156 584.058594 187.761719 583.878906 C 190.453125 582.082031 193.328125 580.464844 196.378906 578.671875 C 196.199219 577.773438 196.199219 576.875 196.019531 575.976562 C 195.121094 567.894531 194.046875 559.453125 194.765625 555.324219 C 196.199219 547.242188 197.457031 542.570312 207.695312 539.515625 C 206.078125 532.332031 199.613281 503.058594 194.046875 489.769531 C 188.65625 477.015625 188.835938 462.46875 194.226562 456.003906 C 194.40625 455.644531 194.765625 455.464844 195.121094 455.105469 C 184.886719 417.386719 174.652344 365.304688 185.066406 296.875 C 192.789062 252.695312 209.667969 213.359375 235.167969 179.957031 C 261.027344 146.011719 290.65625 125.535156 310.769531 114.402344 C 345.96875 95.003906 377.035156 89.796875 390.324219 94.464844 C 413.847656 81.714844 501.839844 99.851562 564.15625 179.058594 C 655.378906 289.871094 639.9375 393.320312 628.621094 468.753906 C 627.90625 473.785156 627.007812 478.992188 626.289062 483.839844 C 622.515625 506.828125 618.925781 528.742188 625.210938 543.46875 L 625.929688 545.085938 L 624.3125 545.804688 C 620.542969 547.597656 616.589844 549.214844 612.820312 551.011719 L 610.84375 551.910156 L 610.484375 549.753906 C 610.304688 549.035156 608.691406 540.054688 607.433594 528.5625 C 606.894531 535.746094 606.535156 544.007812 606.535156 552.628906 L 606.535156 553.886719 L 605.457031 554.425781 C 600.070312 556.757812 594.683594 558.914062 589.296875 561.25 C 618.746094 576.335938 637.960938 593.757812 640.296875 598.066406 C 644.785156 606.328125 653.765625 633.269531 652.507812 647.816406 C 656.097656 650.511719 661.664062 653.566406 668.308594 657.335938 C 683.214844 665.597656 701.710938 676.015625 708.175781 687.6875 C 717.15625 704.390625 749.121094 825.082031 749.121094 892.074219 Z M 198.535156 453.128906 C 200.332031 452.410156 202.484375 452.230469 204.820312 452.769531 C 211.644531 454.386719 222.058594 478.8125 241.09375 536.644531 C 242.890625 541.851562 244.148438 545.984375 244.507812 546.882812 C 245.40625 549.035156 249.894531 551.371094 253.664062 551.550781 C 254.921875 551.730469 257.4375 551.550781 258.335938 550.113281 C 259.410156 548.136719 260.847656 531.792969 262.105469 517.425781 C 264.441406 490.84375 266.414062 470.550781 269.289062 462.109375 C 225.113281 451.871094 211.824219 425.828125 207.871094 411.101562 C 202.84375 392.246094 208.050781 375.003906 215.414062 368.355469 C 230.859375 354.527344 252.945312 365.304688 257.617188 367.820312 C 259.050781 366.921875 260.488281 366.023438 261.746094 364.765625 C 259.949219 363.148438 259.050781 361.710938 259.050781 361.710938 C 259.050781 361.710938 262.824219 359.558594 269.289062 354.527344 C 275.933594 342.316406 280.78125 324.535156 285.089844 308.191406 C 289.941406 289.511719 294.25 273.527344 300.714844 267.242188 L 303.765625 264.367188 L 303.765625 268.5 C 303.765625 269.039062 304.664062 322.738281 321.007812 334.773438 C 333.21875 343.75 345.609375 344.289062 351.355469 343.929688 C 335.195312 323.097656 339.863281 291.308594 340.042969 289.871094 L 341.121094 282.867188 L 343.453125 289.691406 C 356.023438 325.613281 370.390625 339.082031 381.523438 343.753906 C 363.925781 317.53125 366.261719 284.484375 366.441406 283.046875 L 367.15625 273.707031 L 369.851562 282.6875 C 379.191406 312.859375 401.816406 347.164062 435.9375 348.601562 C 419.414062 333.875 416.363281 304.058594 416.183594 302.804688 L 415.464844 295.796875 L 419.414062 301.726562 C 421.03125 304.058594 422.648438 306.753906 424.445312 309.628906 C 434.140625 324.714844 447.070312 344.828125 462.695312 348.421875 C 452.097656 328.84375 451.019531 317.53125 450.839844 316.992188 L 450.300781 310.167969 L 454.253906 315.914062 C 472.929688 343.394531 482.085938 352.371094 515.128906 346.445312 C 501.660156 331 494.121094 299.210938 493.761719 297.773438 L 491.785156 289.332031 L 496.992188 296.335938 C 500.945312 301.726562 504.355469 306.753906 507.40625 311.421875 C 518.902344 328.664062 526.621094 340.160156 546.554688 344.109375 C 556.792969 345.546875 569.363281 338.363281 569.542969 338.183594 L 569.902344 338.003906 L 570.261719 338.003906 C 580.316406 337.464844 590.015625 342.496094 596.300781 351.296875 C 604.019531 362.429688 604.917969 377.515625 598.453125 392.960938 C 584.984375 425.292969 552.480469 437.683594 529.316406 430.859375 C 526.621094 439.480469 514.230469 476.65625 505.253906 489.949219 C 500.945312 495.515625 488.195312 503.777344 484.960938 505.933594 C 484.78125 509.703125 484.421875 523.890625 484.0625 538.261719 C 522.132812 535.207031 557.511719 545.984375 584.804688 559.453125 C 590.730469 557.117188 596.835938 554.605469 602.765625 551.910156 C 602.765625 526.046875 606.714844 504.136719 606.714844 503.777344 L 610.304688 504.316406 C 609.050781 520.300781 612.28125 540.59375 613.539062 547.242188 C 616.050781 546.164062 618.746094 544.90625 621.261719 543.828125 C 615.515625 528.203125 619.105469 506.652344 622.875 483.839844 C 623.773438 478.992188 624.492188 473.785156 625.210938 468.753906 C 636.34375 393.859375 651.789062 291.308594 561.640625 181.75 C 496.09375 98.597656 409.539062 87.101562 391.402344 98.058594 L 390.683594 98.597656 L 389.785156 98.238281 C 378.113281 93.386719 347.046875 98.597656 312.386719 117.632812 C 281.679688 134.695312 207.871094 186.421875 188.835938 297.59375 C 178.78125 364.765625 188.480469 415.773438 198.535156 453.128906 Z M 294.96875 505.035156 C 293.351562 524.609375 291.914062 536.824219 290.835938 544.90625 C 304.484375 542.75 317.953125 542.03125 330.882812 542.570312 C 328.371094 527.304688 325.316406 510.960938 322.800781 509.164062 C 321.90625 508.625 305.5625 496.054688 295.148438 485.636719 C 295.6875 491.203125 295.6875 497.671875 294.96875 505.035156 Z M 337.707031 563.585938 C 337.886719 565.199219 338.246094 566.816406 338.425781 568.253906 C 345.25 571.667969 393.015625 595.734375 409.179688 605.429688 C 414.925781 601.839844 446.171875 582.261719 479.753906 565.019531 C 480.113281 547.421875 481.371094 505.035156 481.371094 504.675781 L 481.371094 503.777344 L 482.085938 503.238281 C 482.265625 503.058594 497.890625 493.179688 502.378906 487.613281 C 512.078125 473.425781 526.265625 428.34375 526.445312 427.804688 L 526.980469 426.007812 L 528.777344 426.546875 C 550.507812 433.910156 582.292969 422.417969 595.222656 391.167969 C 601.148438 376.976562 600.429688 363.148438 593.425781 353.089844 C 588.039062 345.367188 579.597656 341.058594 570.980469 341.238281 C 568.644531 342.496094 556.613281 348.78125 546.015625 347.34375 C 524.46875 343.035156 516.207031 330.460938 504.535156 313.039062 C 503.097656 310.886719 501.660156 308.730469 500.226562 306.574219 C 503.816406 318.25 510.640625 337.105469 520.15625 346.085938 L 521.234375 347.164062 C 525.90625 348.421875 530.035156 348.78125 534.882812 347.34375 C 520.695312 365.304688 507.40625 362.070312 507.40625 362.070312 C 507.40625 362.070312 505.972656 361.351562 503.097656 360.632812 C 506.332031 366.742188 508.125 373.746094 508.125 381.109375 C 508.125 391.707031 504.535156 401.222656 498.789062 408.230469 C 502.199219 406.433594 504.714844 404.996094 504.714844 404.996094 C 504.714844 404.996094 493.042969 418.644531 479.214844 419.363281 C 475.621094 419.542969 471.851562 419.722656 468.261719 419.722656 C 454.253906 419.722656 441.683594 416.492188 441.683594 416.492188 C 441.683594 416.492188 452.097656 416.671875 464.308594 416.492188 C 452.816406 410.742188 444.914062 397.09375 444.914062 381.109375 C 444.914062 374.824219 446.171875 368.894531 448.507812 363.507812 C 439.167969 367.460938 429.652344 373.746094 420.3125 383.265625 C 425.699219 369.433594 438.089844 356.503906 454.074219 348.601562 C 440.785156 341.238281 430.011719 324.355469 421.570312 311.421875 C 421.390625 311.242188 421.210938 311.066406 421.210938 310.707031 C 423.546875 321.660156 429.113281 340.519531 442.222656 348.78125 L 446.890625 351.835938 L 441.324219 352.191406 C 406.304688 354.167969 382.0625 323.996094 370.03125 294.003906 C 370.75 306.933594 373.980469 329.023438 387.628906 346.265625 L 390.683594 350.21875 L 385.835938 349.140625 C 374.160156 346.625 357.460938 335.847656 342.914062 298.851562 C 342.554688 310.167969 343.8125 331 356.203125 344.46875 L 358.359375 346.804688 L 355.304688 347.523438 C 354.585938 347.703125 336.808594 351.117188 319.03125 338.003906 C 304.125 327.050781 301.074219 288.074219 300.535156 274.066406 C 296.046875 281.609375 292.453125 295.257812 288.683594 309.628906 C 285.089844 323.277344 281.140625 338.003906 275.933594 349.859375 C 286.347656 341.957031 309.15625 339.082031 325.136719 348.242188 C 351.535156 362.96875 356.203125 381.648438 356.921875 386.855469 C 358.898438 391.886719 359.976562 402.839844 357.101562 410.203125 C 353.152344 420.441406 342.375 425.113281 333.578125 425.113281 C 329.085938 425.648438 324.957031 425.828125 321.1875 425.828125 C 289.402344 425.828125 283.476562 409.125 283.476562 409.125 C 283.476562 409.125 291.734375 422.238281 321.1875 422.238281 C 309.515625 416.492188 301.253906 402.480469 301.253906 386.316406 C 301.253906 377.15625 303.945312 368.355469 308.617188 361.53125 C 294.789062 360.632812 283.296875 364.945312 278.085938 370.691406 C 272.519531 371.589844 267.851562 369.792969 264.621094 367.640625 C 262.644531 369.613281 260.667969 371.050781 258.335938 372.128906 L 257.4375 372.488281 L 256.539062 371.949219 C 256.359375 371.769531 232.65625 358.121094 217.75 371.589844 C 211.105469 377.515625 206.617188 393.320312 211.285156 410.742188 C 215.054688 424.753906 227.804688 449.714844 270.726562 459.414062 C 273.238281 456.003906 277.011719 454.746094 280.960938 456.183594 C 286.527344 458.15625 292.09375 465.523438 294.25 480.070312 C 303.585938 490.84375 324.417969 506.652344 324.597656 506.828125 C 329.085938 509.34375 332.859375 529.640625 337.707031 563.585938 Z M 353.871094 408.410156 C 354.945312 405.535156 355.304688 402.300781 355.304688 399.070312 C 350.816406 401.042969 346.148438 401.941406 341.300781 401.941406 C 339.683594 401.941406 338.066406 401.761719 336.449219 401.582031 C 336.089844 403.738281 334.65625 406.972656 329.265625 406.253906 C 322.800781 405.355469 320.109375 399.070312 321.007812 395.476562 C 313.824219 390.449219 308.617188 382.726562 306.640625 373.925781 C 305.5625 377.695312 305.023438 381.648438 305.023438 385.777344 C 305.023438 405.175781 317.773438 421.160156 333.578125 421.160156 C 342.734375 421.160156 350.996094 415.953125 353.871094 408.410156 Z M 312.925781 361.53125 C 311.667969 363.148438 310.410156 365.125 309.515625 366.921875 C 309.871094 384.34375 324.058594 398.351562 341.480469 398.351562 C 346.328125 398.351562 350.996094 397.273438 355.304688 395.296875 C 354.945312 390.988281 354.050781 387.574219 353.332031 386.675781 C 353.332031 386.496094 349.019531 380.210938 341.835938 373.386719 C 332.140625 366.382812 322.085938 362.789062 312.925781 361.53125 Z M 504.535156 382.367188 C 498.789062 387.753906 491.785156 391.527344 484.0625 392.960938 C 484.242188 395.117188 483.703125 398.351562 478.316406 399.96875 C 471.671875 401.941406 467.722656 396.554688 467.542969 392.601562 C 460.359375 390.988281 453.894531 387.394531 448.507812 382.367188 C 449.226562 400.863281 461.4375 415.59375 476.519531 415.59375 C 491.605469 415.59375 503.816406 400.863281 504.535156 382.367188 Z M 504.355469 377.335938 C 503.816406 370.691406 501.660156 364.226562 498.25 359.019531 C 488.550781 356.683594 471.851562 354.707031 453.535156 361.351562 C 450.839844 366.023438 449.226562 371.589844 448.6875 377.335938 C 455.691406 385.417969 465.746094 390.089844 476.519531 390.089844 C 487.296875 390.089844 497.351562 385.417969 504.355469 377.335938 Z M 471.671875 342.316406 C 466.644531 338.183594 461.976562 332.4375 456.765625 325.433594 C 458.203125 330.101562 460.71875 336.386719 464.847656 344.109375 C 467.003906 343.394531 469.335938 342.855469 471.671875 342.316406 Z M 196.917969 582.621094 C 195.660156 583.339844 194.585938 584.058594 193.328125 584.777344 C 194.585938 585.316406 195.839844 585.855469 197.277344 586.753906 C 197.277344 585.496094 197.097656 584.058594 196.917969 582.621094 Z M 177.882812 602.738281 C 177.703125 604.535156 177.523438 606.507812 177.34375 608.84375 C 176.085938 622.671875 178.78125 635.785156 185.425781 647.457031 C 192.609375 660.210938 198.175781 679.425781 199.074219 683.019531 C 203.382812 693.976562 214.515625 702.238281 228.523438 705.289062 C 249.175781 709.601562 271.265625 702.058594 289.222656 684.457031 C 301.433594 665.777344 306.460938 634.886719 305.382812 626.804688 C 304.484375 621.054688 299.097656 615.308594 296.40625 613.511719 L 295.6875 612.972656 L 295.6875 612.078125 C 294.789062 599.324219 291.554688 588.726562 289.042969 580.285156 C 286.707031 572.742188 285.089844 566.816406 285.449219 561.96875 C 285.269531 559.453125 285.628906 556.9375 286.347656 551.730469 C 287.425781 544.007812 289.222656 531.078125 291.375 504.675781 C 294.070312 472.707031 285.449219 461.03125 279.882812 459.054688 C 277.371094 458.15625 275.214844 458.875 273.597656 461.210938 C 270.1875 466.238281 267.492188 496.054688 265.695312 517.964844 C 263.722656 540.59375 262.824219 550.113281 261.386719 552.269531 C 259.949219 554.605469 257.078125 555.679688 253.304688 555.503906 C 248.636719 555.144531 242.890625 552.449219 241.09375 548.675781 C 240.734375 547.777344 239.65625 544.546875 237.503906 538.082031 C 220.265625 485.097656 208.949219 457.796875 203.921875 456.542969 C 201.230469 455.824219 198.894531 456.542969 197.277344 458.515625 C 192.609375 463.90625 192.789062 477.015625 197.636719 488.511719 C 204.101562 503.957031 211.464844 538.980469 211.824219 540.59375 L 212.183594 542.210938 L 210.566406 542.570312 C 200.511719 545.265625 199.972656 548.316406 198.714844 555.859375 C 197.996094 559.453125 199.074219 567.894531 199.972656 575.4375 C 200.691406 581.183594 201.230469 586.574219 201.230469 590.164062 L 201.230469 593.9375 L 198.355469 591.601562 C 192.609375 586.933594 188.65625 586.214844 183.089844 588.726562 C 178.960938 590.882812 178.601562 593.21875 177.882812 602.738281 Z M 745.527344 890.996094 C 745.167969 825.800781 713.5625 705.289062 704.765625 689.304688 C 698.835938 678.527344 680.699219 668.472656 666.15625 660.390625 C 658.972656 656.4375 652.6875 652.847656 649.09375 649.972656 L 648.375 649.253906 L 648.554688 648.175781 C 650.351562 634.886719 641.195312 607.585938 636.882812 599.503906 C 635.085938 596.273438 617.308594 579.75 588.578125 564.839844 C 564.15625 552.089844 526.085938 537.722656 483.703125 541.3125 C 483.523438 550.832031 483.164062 559.992188 483.164062 565.917969 L 483.164062 566.996094 L 482.265625 567.535156 C 445.09375 586.574219 410.4375 608.664062 410.078125 608.84375 L 409.179688 609.382812 L 408.28125 608.84375 C 392.300781 598.964844 336.628906 571.128906 336.089844 570.769531 L 335.195312 570.410156 L 335.015625 569.511719 C 334.835938 567.894531 334.476562 566.097656 334.117188 563.941406 C 333.578125 559.632812 332.5 553.167969 331.421875 545.984375 C 318.3125 545.445312 304.484375 546.164062 290.300781 548.496094 C 290.121094 549.753906 289.941406 551.011719 289.761719 552.089844 C 289.042969 557.296875 288.683594 559.632812 288.863281 561.789062 L 288.863281 562.148438 C 288.324219 566.277344 290.121094 572.027344 292.273438 579.210938 C 294.789062 587.652344 298.019531 598.066406 299.097656 610.820312 C 301.972656 613.152344 307.898438 619.082031 308.796875 626.085938 C 310.230469 636.144531 304.125 667.753906 291.914062 686.253906 L 291.734375 686.609375 C 276.472656 701.699219 258.15625 709.78125 240.015625 709.78125 C 235.886719 709.78125 231.757812 709.421875 227.625 708.523438 C 212.363281 705.289062 200.332031 696.128906 195.480469 684.097656 L 195.480469 683.917969 C 194.765625 680.683594 189.195312 661.648438 182.015625 649.074219 C 175.011719 636.683594 172.316406 623.03125 173.574219 608.484375 C 173.753906 606.328125 173.933594 604.355469 174.113281 602.558594 C 174.292969 600.941406 174.292969 599.324219 174.472656 597.886719 C 173.214844 599.144531 172.855469 599.683594 172.675781 599.863281 C 168.367188 607.765625 159.386719 635.246094 161.003906 648.535156 L 161.183594 649.613281 L 160.464844 650.332031 C 156.871094 653.207031 150.585938 656.796875 143.40625 660.75 C 128.859375 668.832031 110.902344 678.886719 104.796875 689.664062 C 95.996094 705.648438 64.210938 826.160156 64.03125 891.355469 C 72.832031 896.925781 151.304688 945.238281 268.570312 969.84375 C 382.960938 993.550781 558.40625 999.296875 745.527344 890.996094 Z M 745.527344 890.996094 " fill-opacity="1" fill-rule="nonzero"/></g></svg>